<?xml version="1.0" encoding="utf-8"?>
<!-- Uploaded to: SVG Repo, www.svgrepo.com, Generator: SVG Repo Mixer Tools -->
<svg width="120px" height="70px" viewBox="0 0 1024 1024" class="icon"  version="1.1" xmlns="http://www.w3.org/2000/svg"><path d="M948.624312 74.832009a255.944992 255.944992 0 0 0-361.834518 0L134.512638 527.141147a31.94915 31.94915 0 0 0 0 45.221319l316.581217 316.581217a31.94915 31.94915 0 0 0 45.221319 0l452.309138-452.277156a255.944992 255.944992 0 0 0 0-361.834518z" fill="#f248a0" /><path d="M247.565936 685.415765L19.060754 913.920947c-24.945282 24.977263-24.145754 64.697828 0.799528 89.707072 24.977263 24.945282 64.633866 25.776792 89.643111 0.799529l228.537163-228.537163-90.47462-90.47462z" fill="#EAEAEA" /><path d="M767.707053 255.781249a31.94915 31.94915 0 0 0-45.22132 0L360.651216 617.583786a31.885188 31.885188 0 0 0 0 45.221319 31.885188 31.885188 0 0 0 45.221319 0L767.707053 301.002568a31.94915 31.94915 0 0 0 0-45.221319zM858.149692 346.223888a31.94915 31.94915 0 0 0-45.22132 0L451.093855 708.058406a31.94915 31.94915 0 1 0 45.221319 45.221319l361.802537-361.802537a31.885188 31.885188 0 0 0 0.031981-45.2533zM677.264414 165.306629a31.981131 31.981131 0 0 0-45.253301 0L270.176596 527.141147a31.94915 31.94915 0 1 0 45.221319 45.221319L677.264414 210.527949a31.981131 31.981131 0 0 0 0-45.22132z" fill="" /><path d="M903.371011 120.08531a318.851877 318.851877 0 0 1 92.45745 251.243766c48.675282-96.007356 33.036508-216.256409-47.204149-296.497067A255.849049 255.849049 0 0 0 652.127245 27.62786a318.851877 318.851877 0 0 1 251.243766 92.45745z" fill="#FFFFFF" /><path d="M247.565936 685.415765l90.47462 90.47462-22.642641 22.610659-90.442639-90.442638z" fill="" /></svg>